# File exported by Houdini 16.5.496 (www.sidefx.com)
# 25 points
# 69 vertices
# 23 primitives
# Bounds: [-37.2189789, 1.97085525e-22, 3.21865082e-06] to [37.2189789, 5.09776446e-15, 83.2528076]
g 
v 1.46722698 1.97085525e-22 3.21865082e-06
v 12.7975054 5.28637564e-17 0.863330603
v 17.5409775 7.13673062e-16 11.6551647
v 31.2970715 1.58745198e-15 25.9250565
v 28.8481407 2.0191474e-15 32.9751778
v 37.2189789 2.42492023e-15 39.6019516
v 26.7272301 2.65885908e-15 43.4224625
v 14.0213366 2.28568897e-15 37.3281326
v 8.93420601 2.04839778e-15 33.4528732
v 9.44100952 3.36465288e-15 54.9489479
v 12.0948582 4.49842681e-15 73.4648819
v 8.5868988 4.79249082e-15 78.2673111
v 2.58401489 4.42652515e-15 72.2906418
v -0.828383446 5.09776446e-15 83.2528076
v -6.92110825 4.30618845e-15 70.3253937
v -12.4031715 3.47593162e-15 56.7662697
v -22.0714588 3.42571972e-15 55.9462471
v -22.1142063 2.62543495e-15 42.876606
v -21.9702473 1.57583301e-15 25.7353058
v -27.375494 1.30779293e-15 21.3578777
v -37.2189789 8.19322211e-16 13.3805466
v -35.3551636 3.13159357e-16 5.11428022
v -30.2053051 7.0927855e-16 11.5833969
v -21.9265308 5.6466472e-16 9.22167397
v -16.6111984 3.03395158e-17 0.495481849
vt 0.446791649 0.820738435 0.5
vt 0.460226297 0.777580321 0.5
vt 0.422804534 0.769843102 0.5
vt 0.460226297 0.777580321 0.5
vt 0.497670561 0.782203317 0.5
vt 0.487222344 0.709305942 0.5
vt 0.485227048 0.624675691 0.5
vt 0.363555968 0.594291568 0.5
vt 0.487222344 0.709305942 0.5
vt 0.483859688 0.801110506 0.5
vt 0.497670561 0.782203317 0.5
vt 0.460226297 0.777580321 0.5
vt 0.487222344 0.709305942 0.5
vt 0.422804534 0.769843102 0.5
vt 0.460226297 0.777580321 0.5
vt 0.500436902 0.496370435 0.5
vt 0.455829501 0.49297151 0.5
vt 0.519111991 0.538857996 0.5
vt 0.519111991 0.538857996 0.5
vt 0.455829501 0.49297151 0.5
vt 0.485227048 0.624675691 0.5
vt 0.505255103 0.639932632 0.5
vt 0.519111991 0.538857996 0.5
vt 0.485227048 0.624675691 0.5
vt 0.505255103 0.639932632 0.5
vt 0.573269844 0.595038652 0.5
vt 0.519111991 0.538857996 0.5
vt 0.573269844 0.595038652 0.5
vt 0.505255103 0.639932632 0.5
vt 0.563628376 0.622795045 0.5
vt 0.555278301 0.663926065 0.5
vt 0.596584439 0.648884654 0.5
vt 0.563628376 0.622795045 0.5
vt 0.563628376 0.622795045 0.5
vt 0.505255103 0.639932632 0.5
vt 0.555278301 0.663926065 0.5
vt 0.422804534 0.769843102 0.5
vt 0.487222344 0.709305942 0.5
vt 0.401221633 0.716460764 0.5
vt 0.401221633 0.716460764 0.5
vt 0.487222344 0.709305942 0.5
vt 0.362989187 0.66177702 0.5
vt 0.363555968 0.594291568 0.5
vt 0.455829501 0.49297151 0.5
vt 0.363728076 0.529277325 0.5
vt 0.363728076 0.529277325 0.5
vt 0.455829501 0.49297151 0.5
vt 0.384654582 0.494922221 0.5
vt 0.363157511 0.713232279 0.5
vt 0.401221633 0.716460764 0.5
vt 0.362989187 0.66177702 0.5
vt 0.455829501 0.49297151 0.5
vt 0.363555968 0.594291568 0.5
vt 0.485227048 0.624675691 0.5
vt 0.487222344 0.709305942 0.5
vt 0.363555968 0.594291568 0.5
vt 0.362989187 0.66177702 0.5
vt 0.363555968 0.594291568 0.5
vt 0.363728076 0.529277325 0.5
vt 0.34227547 0.5770576 0.5
vt 0.34227547 0.5770576 0.5
vt 0.363728076 0.529277325 0.5
vt 0.331134498 0.538575411 0.5
vt 0.331134498 0.538575411 0.5
vt 0.303521603 0.54565084 0.5
vt 0.34227547 0.5770576 0.5
vt 0.310859442 0.513106465 0.5
vt 0.303521603 0.54565084 0.5
vt 0.331134498 0.538575411 0.5
vn 0 1 -6.12323426e-17
vn 0 1 -6.12323426e-17
vn 0 1 -6.12323426e-17
vn 0 1 -6.12323426e-17
vn 0 1 -6.12323426e-17
vn 0 1 -6.12323426e-17
vn 0 1 -6.12323426e-17
vn 0 1 -6.12323426e-17
vn 0 1 -6.12323426e-17
vn 0 0.99999994 -6.1232336e-17
vn 0 1 -6.12323426e-17
vn 0 1 -6.12323426e-17
vn 0 1 -6.12323426e-17
vn 0 1 -6.12323426e-17
vn 0 1 -6.12323426e-17
vn 0 0.99999994 -6.1232336e-17
vn 0 1 -6.12323426e-17
vn 0 0.99999994 -6.1232336e-17
vn 0 0.99999994 -6.1232336e-17
vn 0 1 -6.12323426e-17
vn 0 1 -6.12323426e-17
vn 0 1 -6.12323426e-17
vn 0 0.99999994 -6.1232336e-17
vn 0 1 -6.12323426e-17
vn 0 1 -6.12323426e-17
vn 0 1 -6.12323426e-17
vn 0 0.99999994 -6.1232336e-17
vn 0 1 -6.12323426e-17
vn 0 1 -6.12323426e-17
vn 0 1 -6.12323426e-17
vn 0 1 -6.12323426e-17
vn 0 1 -6.12323426e-17
vn 0 1 -6.12323426e-17
vn 0 1 -6.12323426e-17
vn 0 1 -6.12323426e-17
vn 0 1 -6.12323426e-17
vn 0 1 -6.12323426e-17
vn 0 1 -6.12323426e-17
vn 0 1 -6.12323426e-17
vn 0 1 -6.12323426e-17
vn 0 1 -6.12323426e-17
vn 0 0.99999994 -6.1232336e-17
vn 0 1 -6.12323426e-17
vn 0 1 -6.12323426e-17
vn 0 1 -6.12323426e-17
vn 0 1 -6.12323426e-17
vn 0 1 -6.12323426e-17
vn 0 0.99999994 -6.1232336e-17
vn 0 1 -6.12323426e-17
vn 0 1 -6.12323426e-17
vn 0 0.99999994 -6.1232336e-17
vn 0 1 -6.12323426e-17
vn 0 1 -6.12323426e-17
vn 0 1 -6.12323426e-17
vn 0 1 -6.12323426e-17
vn 0 1 -6.12323426e-17
vn 0 0.99999994 -6.1232336e-17
vn 0 1 -6.12323426e-17
vn 0 1 -6.12323426e-17
vn 0 1 -6.12323426e-17
vn 0 1 -6.12323426e-17
vn 0 1 -6.12323426e-17
vn 0 1 -6.12323426e-17
vn 0 1 -6.12323426e-17
vn 0 1 -6.12323426e-17
vn 0 1 -6.12323426e-17
vn 0 0.99999994 -6.1232336e-17
vn 0 1 -6.12323426e-17
vn 0 1 -6.12323426e-17
g MI_Foliage
f 14/1/1 13/2/2 15/3/3
f 13/4/4 11/5/5 10/6/6
f 9/7/7 19/8/8 10/9/9
f 12/10/10 11/11/11 13/12/12
f 10/13/13 15/14/14 13/15/15
f 2/16/16 1/17/17 3/18/18
f 3/19/19 1/20/20 9/21/21
f 8/22/22 3/23/23 9/24/24
f 8/25/25 4/26/26 3/27/27
f 4/28/28 8/29/29 5/30/30
f 7/31/31 6/32/32 5/33/33
f 5/34/34 8/35/35 7/36/36
f 15/37/37 10/38/38 16/39/39
f 16/40/40 10/41/41 18/42/42
f 19/43/43 1/44/44 24/45/45
f 24/46/46 1/47/47 25/48/48
f 17/49/49 16/50/50 18/51/51
f 1/52/52 19/53/53 9/54/54
f 10/55/55 19/56/56 18/57/57
f 19/58/58 24/59/59 20/60/60
f 20/61/61 24/62/62 23/63/63
f 23/64/64 21/65/65 20/66/66
f 22/67/67 21/68/68 23/69/69
