# File exported by Houdini 16.5.496 (www.sidefx.com)
# 30 points
# 96 vertices
# 32 primitives
# Bounds: [-30.7162552, 2.3358285e-22, 3.81469727e-06] to [30.716259, 4.93725679e-15, 80.6315155]
g 
v 8.35949707 5.66478099e-17 0.925128937
v 22.6938972 2.3358285e-22 3.81469727e-06
v 8.30067062 5.68511679e-16 9.28450012
v 8.25128555 1.26386305e-15 20.6404495
v 20.959671 1.29386051e-15 21.1303444
v 29.637043 1.92806976e-15 31.4877663
v 30.716259 2.68612211e-15 43.8677025
v 29.5487099 3.18571717e-15 52.0267067
v 25.5935249 3.78648418e-15 61.8379784
v 19.9739799 3.83578701e-15 62.6431541
v 18.4012794 4.78560825e-15 78.1549072
v 11.5716591 4.93725679e-15 80.6315155
v 2.41872025 4.00415852e-15 65.392868
v 5.70016861 3.13072949e-15 51.1286888
v 3.02259064 2.85164738e-15 46.5709343
v -6.17616653 3.59059426e-15 58.6388512
v -20.9932766 3.66983589e-15 59.9329643
v -19.8547897 3.15451566e-15 51.5171471
v -19.1015625 2.59781956e-15 42.4256096
v -29.8997707 2.7385742e-15 44.724308
v -30.7162552 2.33184952e-15 38.0819893
v -18.856678 1.61604643e-15 26.3920403
v -2.72569275 1.50707183e-15 24.6123505
v -1.1459465 9.20134961e-16 15.0269432
v -3.67086792 2.02723678e-15 33.1072884
v -7.17329788 2.41002918e-15 39.3587608
v 2.15624619 2.30604699e-15 37.6606026
v 9.99201202 2.18823614e-15 35.7366066
v 9.66402817 2.45482282e-15 40.0902977
v 15.7213821 2.48635934e-15 40.6053276
vt 0.752610326 0.639563084 0.5
vt 0.696175694 0.643205285 0.5
vt 0.69594413 0.676116228 0.5
vt 0.69594413 0.676116228 0.5
vt 0.696175694 0.643205285 0.5
vt 0.65875268 0.69872427 0.5
vt 0.69594413 0.676116228 0.5
vt 0.65875268 0.69872427 0.5
vt 0.6957497 0.720824659 0.5
vt 0.702602923 0.780258358 0.5
vt 0.6957497 0.720824659 0.5
vt 0.671753466 0.787833154 0.5
vt 0.702602923 0.780258358 0.5
vt 0.745782733 0.722753406 0.5
vt 0.6957497 0.720824659 0.5
vt 0.725159526 0.799426556 0.5
vt 0.745782733 0.722753406 0.5
vt 0.702602923 0.780258358 0.5
vt 0.725159526 0.799426556 0.5
vt 0.6857059 0.840857148 0.5
vt 0.741901994 0.88618964 0.5
vt 0.745782733 0.722753406 0.5
vt 0.725159526 0.799426556 0.5
vt 0.779945612 0.763530612 0.5
vt 0.741901994 0.88618964 0.5
vt 0.764026225 0.883019686 0.5
vt 0.779597819 0.844392598 0.5
vt 0.784194469 0.812270522 0.5
vt 0.725159526 0.799426556 0.5
vt 0.779597819 0.844392598 0.5
vt 0.741901994 0.88618964 0.5
vt 0.779597819 0.844392598 0.5
vt 0.725159526 0.799426556 0.5
vt 0.725159526 0.799426556 0.5
vt 0.784194469 0.812270522 0.5
vt 0.779945612 0.763530612 0.5
vt 0.6857059 0.840857148 0.5
vt 0.725159526 0.799426556 0.5
vt 0.701311648 0.797398865 0.5
vt 0.735710263 0.947259545 0.5
vt 0.741901994 0.88618964 0.5
vt 0.708822012 0.957009912 0.5
vt 0.708822012 0.957009912 0.5
vt 0.741901994 0.88618964 0.5
vt 0.672786832 0.897015333 0.5
vt 0.741901994 0.88618964 0.5
vt 0.6857059 0.840857148 0.5
vt 0.672786832 0.897015333 0.5
vt 0.675164282 0.82291317 0.5
vt 0.6857059 0.840857148 0.5
vt 0.701311648 0.797398865 0.5
vt 0.671753466 0.787833154 0.5
vt 0.675164282 0.82291317 0.5
vt 0.701311648 0.797398865 0.5
vt 0.702602923 0.780258358 0.5
vt 0.671753466 0.787833154 0.5
vt 0.701311648 0.797398865 0.5
vt 0.652533233 0.736462057 0.5
vt 0.671753466 0.787833154 0.5
vt 0.6957497 0.720824659 0.5
vt 0.675164282 0.82291317 0.5
vt 0.635022998 0.794518828 0.5
vt 0.638948679 0.870424688 0.5
vt 0.652533233 0.736462057 0.5
vt 0.6957497 0.720824659 0.5
vt 0.65875268 0.69872427 0.5
vt 0.671753466 0.787833154 0.5
vt 0.652533233 0.736462057 0.5
vt 0.648812056 0.7699067 0.5
vt 0.675164282 0.82291317 0.5
vt 0.671753466 0.787833154 0.5
vt 0.635022998 0.794518828 0.5
vt 0.638948679 0.870424688 0.5
vt 0.635022998 0.794518828 0.5
vt 0.585095823 0.842386484 0.5
vt 0.648812056 0.7699067 0.5
vt 0.589025438 0.743468761 0.5
vt 0.635022998 0.794518828 0.5
vt 0.635022998 0.794518828 0.5
vt 0.588061333 0.80659306 0.5
vt 0.585095823 0.842386484 0.5
vt 0.648812056 0.7699067 0.5
vt 0.652533233 0.736462057 0.5
vt 0.589025438 0.743468761 0.5
vt 0.635022998 0.794518828 0.5
vt 0.589025438 0.743468761 0.5
vt 0.588061333 0.80659306 0.5
vt 0.580613613 0.875519633 0.5
vt 0.638948679 0.870424688 0.5
vt 0.585095823 0.842386484 0.5
vt 0.588061333 0.80659306 0.5
vt 0.589025438 0.743468761 0.5
vt 0.542334199 0.78949213 0.5
vt 0.588061333 0.80659306 0.5
vt 0.542334199 0.78949213 0.5
vt 0.545548677 0.815643013 0.5
vn 0 1 -6.12323426e-17
vn 0 1 -6.12323426e-17
vn 0 1 -6.12323426e-17
vn 0 1 -6.12323426e-17
vn 0 1 -6.12323426e-17
vn 0 1 -6.12323426e-17
vn 0 1 -6.12323426e-17
vn 0 1 -6.12323426e-17
vn 0 1 -6.12323426e-17
vn 0 0.99999994 -6.1232336e-17
vn 0 1 -6.12323426e-17
vn 0 1 -6.12323426e-17
vn 0 0.99999994 -6.1232336e-17
vn 0 1 -6.12323426e-17
vn 0 1 -6.12323426e-17
vn 0 0.99999994 -6.1232336e-17
vn 0 1 -6.12323426e-17
vn 0 0.99999994 -6.1232336e-17
vn 0 0.99999994 -6.1232336e-17
vn 0 1 -6.12323426e-17
vn 0 1 -6.12323426e-17
vn 0 1 -6.12323426e-17
vn 0 0.99999994 -6.1232336e-17
vn 0 1 -6.12323426e-17
vn 0 1 -6.12323426e-17
vn 0 1 -6.12323426e-17
vn 0 1 -6.12323426e-17
vn 0 1 -6.12323426e-17
vn 0 0.99999994 -6.1232336e-17
vn 0 1 -6.12323426e-17
vn 0 1 -6.12323426e-17
vn 0 1 -6.12323426e-17
vn 0 0.99999994 -6.1232336e-17
vn 0 0.99999994 -6.1232336e-17
vn 0 1 -6.12323426e-17
vn 0 1 -6.12323426e-17
vn 0 1 -6.12323426e-17
vn 0 0.99999994 -6.1232336e-17
vn 0 1 -6.12323426e-17
vn 0 1 -6.12323426e-17
vn 0 1 -6.12323426e-17
vn 0 1 -6.12323426e-17
vn 0 1 -6.12323426e-17
vn 0 1 -6.12323426e-17
vn 0 1 -6.12323426e-17
vn 0 1 -6.12323426e-17
vn 0 1 -6.12323426e-17
vn 0 1 -6.12323426e-17
vn 0 1 -6.12323426e-17
vn 0 1 -6.12323426e-17
vn 0 1 -6.12323426e-17
vn 0 1 -6.12323426e-17
vn 0 1 -6.12323426e-17
vn 0 1 -6.12323426e-17
vn 0 0.99999994 -6.1232336e-17
vn 0 1 -6.12323426e-17
vn 0 1 -6.12323426e-17
vn 0 1 -6.12323426e-17
vn 0 1 -6.12323426e-17
vn 0 1 -6.12323426e-17
vn 0 1 -6.12323426e-17
vn 0 1 -6.12323426e-17
vn 0 1 -6.12323426e-17
vn 0 1 -6.12323426e-17
vn 0 1 -6.12323426e-17
vn 0 1 -6.12323426e-17
vn 0 1 -6.12323426e-17
vn 0 1 -6.12323426e-17
vn 0 1 -6.12323426e-17
vn 0 1 -6.12323426e-17
vn 0 1 -6.12323426e-17
vn 0 1 -6.12323426e-17
vn 0 1 -6.12323426e-17
vn 0 1 -6.12323426e-17
vn 0 1 -6.12323426e-17
vn 0 1 -6.12323426e-17
vn 0 1 -6.12323426e-17
vn 0 1 -6.12323426e-17
vn 0 1 -6.12323426e-17
vn 0 1 -6.12323426e-17
vn 0 1 -6.12323426e-17
vn 0 1 -6.12323426e-17
vn 0 1 -6.12323426e-17
vn 0 1 -6.12323426e-17
vn 0 1 -6.12323426e-17
vn 0 1 -6.12323426e-17
vn 0 1 -6.12323426e-17
vn 0 1 -6.12323426e-17
vn 0 1 -6.12323426e-17
vn 0 1 -6.12323426e-17
vn 0 1 -6.12323426e-17
vn 0 1 -6.12323426e-17
vn 0 1 -6.12323426e-17
vn 0 1 -6.12323426e-17
vn 0 1 -6.12323426e-17
vn 0 1 -6.12323426e-17
g MI_Foliage
f 2/1/1 1/2/2 3/3/3
f 3/4/4 1/5/5 24/6/6
f 3/7/7 24/8/8 4/9/9
f 28/10/10 4/11/11 27/12/12
f 28/13/13 5/14/14 4/15/15
f 30/16/16 5/17/17 28/18/18
f 30/19/19 14/20/20 10/21/21
f 5/22/22 30/23/23 6/24/24
f 10/25/25 9/26/26 8/27/27
f 7/28/28 30/29/29 8/30/30
f 10/31/31 8/32/32 30/33/33
f 30/34/34 7/35/35 6/36/36
f 14/37/37 30/38/38 29/39/39
f 11/40/40 10/41/41 12/42/42
f 12/43/43 10/44/44 13/45/45
f 10/46/46 14/47/47 13/48/48
f 15/49/49 14/50/50 29/51/51
f 27/52/52 15/53/53 29/54/54
f 28/55/55 27/56/56 29/57/57
f 23/58/58 27/59/59 4/60/60
f 15/61/61 26/62/62 16/63/63
f 23/64/64 4/65/65 24/66/66
f 27/67/67 23/68/68 25/69/69
f 15/70/70 27/71/71 26/72/72
f 16/73/73 26/74/74 18/75/75
f 25/76/76 22/77/77 26/78/78
f 26/79/79 19/80/80 18/81/81
f 25/82/82 23/83/83 22/84/84
f 26/85/85 22/86/86 19/87/87
f 17/88/88 16/89/89 18/90/90
f 19/91/91 22/92/92 21/93/93
f 19/94/94 21/95/95 20/96/96
