# File exported by Houdini 16.5.496 (www.sidefx.com)
# 4 points
# 6 vertices
# 2 primitives
# Bounds: [-5.49856567, -44.5001717, 0] to [5.49856567, -33.089817, 0]
g 
v -1.13588715 -44.5001717 0
v -5.49856567 -39.9161873 0
v -3.51394653 -33.1178093 0
v 5.49856567 -33.089817 0
vt 0.807178676 0.194417387 0.5
vt 0.799365222 0.16765213 0.5
vt 0.816541076 0.149604946 0.5
vt 0.807178676 0.194417387 0.5
vt 0.816541076 0.149604946 0.5
vt 0.842661023 0.194527596 0.5
vn 0 0 1
vn 0 0 1
vn 0 0 1
vn 0 0 1
vn 0 0 1
vn 0 0 1
g MI_Foliage
f 3/1/1 2/2/2 1/3/3
f 3/4/4 1/5/5 4/6/6
