# File exported by Houdini 16.5.496 (www.sidefx.com)
# 26 points
# 72 vertices
# 24 primitives
# Bounds: [-32.6443367, 0, 0] to [32.6443367, 5.91784016e-15, 96.6456604]
g 
v -9.70616436 5.79799346e-18 0.0946884155
v 3.30132246 0 0
v 15.2351103 1.85866541e-17 0.303543091
v 21.4228172 5.59768235e-16 9.14170837
v 28.3994713 2.65498666e-16 4.33592224
v 32.6443367 4.85892033e-16 7.93521881
v 24.9624882 1.19571946e-15 19.5275803
v 16.1624031 1.46443039e-15 23.9159622
v 17.4743977 2.49222441e-15 40.7011108
v 18.5638657 3.42606065e-15 55.9518127
v 12.4000864 3.82357322e-15 62.4436874
v 14.6653843 5.45014583e-15 89.0076294
v 12.7240791 5.91784016e-15 96.6456604
v 6.12788391 5.18488349e-15 84.6755676
v 3.66308546 4.1164717e-15 67.2270813
v -1.19454861 3.08042145e-15 50.3070984
v -8.1627512 3.32283338e-15 54.2659836
v -20.5645714 4.9418871e-15 80.7071381
v -22.5806885 4.364718e-15 71.28125
v -17.8417282 3.2961474e-15 53.8301697
v -14.9378309 2.08403415e-15 34.0348587
v -14.667201 1.60282594e-15 26.1761322
v -23.5722542 1.78322374e-15 29.1222534
v -32.6443367 1.6123864e-15 26.3322678
v -28.1247749 1.17902719e-15 19.2549744
v -18.0021477 5.08483725e-16 8.3041687
vt 0.527110755 0.131388783 0.5
vt 0.458776295 0.235290885 0.5
vt 0.532276094 0.197472036 0.5
vt 0.47647658 0.0372314453 0.5
vt 0.425265998 0.0376042426 0.5
vt 0.40573436 0.140287071 0.5
vt 0.523459971 0.0384264886 0.5
vt 0.47647658 0.0372314453 0.5
vt 0.547821045 0.0732224286 0.5
vt 0.477900833 0.301904976 0.5
vt 0.512298465 0.28307274 0.5
vt 0.458776295 0.235290885 0.5
vt 0.512298465 0.28307274 0.5
vt 0.477900833 0.301904976 0.5
vt 0.487604767 0.370599806 0.5
vt 0.487604767 0.370599806 0.5
vt 0.513574064 0.417726189 0.5
vt 0.521216989 0.387655169 0.5
vt 0.532276094 0.197472036 0.5
vt 0.458776295 0.235290885 0.5
vt 0.512298465 0.28307274 0.5
vt 0.532276094 0.197472036 0.5
vt 0.512298465 0.28307274 0.5
vt 0.536565304 0.257514179 0.5
vt 0.527110755 0.131388783 0.5
vt 0.404668868 0.171226948 0.5
vt 0.458776295 0.235290885 0.5
vt 0.547821045 0.0732224286 0.5
vt 0.47647658 0.0372314453 0.5
vt 0.527110755 0.131388783 0.5
vt 0.527110755 0.131388783 0.5
vt 0.56175673 0.114111692 0.5
vt 0.547821045 0.0732224286 0.5
vt 0.547821045 0.0732224286 0.5
vt 0.56175673 0.114111692 0.5
vt 0.592000246 0.0684724748 0.5
vt 0.547821045 0.0732224286 0.5
vt 0.592000246 0.0684724748 0.5
vt 0.575288177 0.054302007 0.5
vt 0.487604767 0.370599806 0.5
vt 0.521216989 0.387655169 0.5
vt 0.512298465 0.28307274 0.5
vt 0.458776295 0.235290885 0.5
vt 0.404668868 0.171226948 0.5
vt 0.431342423 0.250877053 0.5
vt 0.40573436 0.140287071 0.5
vt 0.527110755 0.131388783 0.5
vt 0.47647658 0.0372314453 0.5
vt 0.527110755 0.131388783 0.5
vt 0.40573436 0.140287071 0.5
vt 0.404668868 0.171226948 0.5
vt 0.425265998 0.0376042426 0.5
vt 0.392604649 0.0699250102 0.5
vt 0.40573436 0.140287071 0.5
vt 0.431342423 0.250877053 0.5
vt 0.374578893 0.317866266 0.5
vt 0.382516354 0.354976118 0.5
vt 0.404668868 0.171226948 0.5
vt 0.39323622 0.249161243 0.5
vt 0.431342423 0.250877053 0.5
vt 0.40573436 0.140287071 0.5
vt 0.352751791 0.113038421 0.5
vt 0.370675087 0.151885986 0.5
vt 0.431342423 0.250877053 0.5
vt 0.39323622 0.249161243 0.5
vt 0.374578893 0.317866266 0.5
vt 0.40573436 0.140287071 0.5
vt 0.392604649 0.0699250102 0.5
vt 0.352751791 0.113038421 0.5
vt 0.370675087 0.151885986 0.5
vt 0.352751791 0.113038421 0.5
vt 0.334958255 0.140901804 0.5
vn 0 1 -6.12323426e-17
vn 0 0.99999994 -6.1232336e-17
vn 0 1 -6.12323426e-17
vn 0 1 -6.12323426e-17
vn 0 1 -6.12323426e-17
vn 0 1 -6.12323426e-17
vn 0 1 -6.12323426e-17
vn 0 1 -6.12323426e-17
vn 0 1 -6.12323426e-17
vn 0 1 -6.12323426e-17
vn 0 1 -6.12323426e-17
vn 0 0.99999994 -6.1232336e-17
vn 0 1 -6.12323426e-17
vn 0 1 -6.12323426e-17
vn 0 1 -6.12323426e-17
vn 0 1 -6.12323426e-17
vn 0 0.99999994 -6.1232336e-17
vn 0 1 -6.12323426e-17
vn 0 1 -6.12323426e-17
vn 0 0.99999994 -6.1232336e-17
vn 0 1 -6.12323426e-17
vn 0 1 -6.12323426e-17
vn 0 1 -6.12323426e-17
vn 0 0.99999994 -6.1232336e-17
vn 0 1 -6.12323426e-17
vn 0 1 -6.12323426e-17
vn 0 0.99999994 -6.1232336e-17
vn 0 1 -6.12323426e-17
vn 0 1 -6.12323426e-17
vn 0 1 -6.12323426e-17
vn 0 1 -6.12323426e-17
vn 0 0.99999994 -6.1232336e-17
vn 0 1 -6.12323426e-17
vn 0 1 -6.12323426e-17
vn 0 0.99999994 -6.1232336e-17
vn 0 1 -6.12323426e-17
vn 0 1 -6.12323426e-17
vn 0 1 -6.12323426e-17
vn 0 1 -6.12323426e-17
vn 0 1 -6.12323426e-17
vn 0 1 -6.12323426e-17
vn 0 1 -6.12323426e-17
vn 0 0.99999994 -6.1232336e-17
vn 0 1 -6.12323426e-17
vn 0 1 -6.12323426e-17
vn 0 1 -6.12323426e-17
vn 0 1 -6.12323426e-17
vn 0 1 -6.12323426e-17
vn 0 1 -6.12323426e-17
vn 0 1 -6.12323426e-17
vn 0 1 -6.12323426e-17
vn 0 1 -6.12323426e-17
vn 0 1 -6.12323426e-17
vn 0 1 -6.12323426e-17
vn 0 1 -6.12323426e-17
vn 0 1 -6.12323426e-17
vn 0 1 -6.12323426e-17
vn 0 1 -6.12323426e-17
vn 0 1 -6.12323426e-17
vn 0 1 -6.12323426e-17
vn 0 1 -6.12323426e-17
vn 0 0.99999994 -6.1232336e-17
vn 0 1 -6.12323426e-17
vn 0 1 -6.12323426e-17
vn 0 1 -6.12323426e-17
vn 0 1 -6.12323426e-17
vn 0 1 -6.12323426e-17
vn 0 1 -6.12323426e-17
vn 0 0.99999994 -6.1232336e-17
vn 0 1 -6.12323426e-17
vn 0 0.99999994 -6.1232336e-17
vn 0 1 -6.12323426e-17
g MI_Foliage
f 8/1/1 16/2/2 9/3/3
f 2/4/4 1/5/5 22/6/6
f 3/7/7 2/8/8 4/9/9
f 15/10/10 11/11/11 16/12/12
f 11/13/13 15/14/14 14/15/15
f 14/16/16 13/17/17 12/18/18
f 9/19/19 16/20/20 11/21/21
f 9/22/22 11/23/23 10/24/24
f 8/25/25 21/26/26 16/27/27
f 4/28/28 2/29/29 8/30/30
f 8/31/31 7/32/32 4/33/33
f 4/34/34 7/35/35 6/36/36
f 4/37/37 6/38/38 5/39/39
f 14/40/40 12/41/41 11/42/42
f 16/43/43 21/44/44 17/45/45
f 22/46/46 8/47/47 2/48/48
f 8/49/49 22/50/50 21/51/51
f 1/52/52 26/53/53 22/54/54
f 17/55/55 19/56/56 18/57/57
f 21/58/58 20/59/59 17/60/60
f 22/61/61 25/62/62 23/63/63
f 17/64/64 20/65/65 19/66/66
f 22/67/67 26/68/68 25/69/69
f 23/70/70 25/71/71 24/72/72
