# File exported by Houdini 16.5.496 (www.sidefx.com)
# 6 points
# 12 vertices
# 4 primitives
# Bounds: [-8.14551163, 0, 0] to [8.14551163, 2.3013756e-15, 37.5843124]
g 
v 0.573217392 0 0
v 8.14551163 9.13556586e-16 14.9195099
v 6.31686974 1.62284959e-15 26.5031433
v -0.904380798 2.3013756e-15 37.5843124
v -8.14551163 1.54223312e-15 25.1865768
v -5.62750626 6.38829919e-16 10.4328842
vt 0.352861941 0.878568649 0.5
vt 0.407086432 0.896232545 0.5
vt 0.377274245 0.837494314 0.5
vt 0.342948556 0.936654091 0.5
vt 0.399887055 0.94183743 0.5
vt 0.407086432 0.896232545 0.5
vt 0.342948556 0.936654091 0.5
vt 0.371456921 0.985464036 0.5
vt 0.399887055 0.94183743 0.5
vt 0.342948556 0.936654091 0.5
vt 0.407086432 0.896232545 0.5
vt 0.352861941 0.878568649 0.5
vn 0 1 -6.12323426e-17
vn 0 1 -6.12323426e-17
vn 0 1 -6.12323426e-17
vn 0 1 -6.12323426e-17
vn 0 1 -6.12323426e-17
vn 0 1 -6.12323426e-17
vn 0 1 -6.12323426e-17
vn 0 1 -6.12323426e-17
vn 0 1 -6.12323426e-17
vn 0 1 -6.12323426e-17
vn 0 1 -6.12323426e-17
vn 0 1 -6.12323426e-17
g MI_Foliage
f 6/1/1 2/2/2 1/3/3
f 5/4/4 3/5/5 2/6/6
f 5/7/7 4/8/8 3/9/9
f 5/10/10 2/11/11 6/12/12
