# File exported by Houdini 16.5.496 (www.sidefx.com)
# 40 points
# 114 vertices
# 38 primitives
# Bounds: [-34.972168, 0, 0] to [34.9721718, 6.73232078e-15, 109.947136]
g 
v 4.70617676 5.51657272e-17 0.900924683
v 22.943821 4.91697967e-16 8.03003693
v 19.7195511 8.2856837e-16 13.5315475
v 26.5488586 1.17131284e-15 19.1289902
v 21.6622734 1.34674575e-15 21.9940262
v 29.9619331 1.56831358e-15 25.6125031
v 32.9858551 1.91630722e-15 31.2956696
v 25.6239052 2.13543867e-15 34.8743591
v 34.9721718 2.35745913e-15 38.5002289
v 29.6884651 2.71546269e-15 44.3468704
v 21.8884201 2.96575902e-15 48.4345169
v 29.5346069 3.18667538e-15 52.0423546
v 24.8705025 3.48991995e-15 56.9947166
v 28.2242279 3.91904526e-15 64.002861
v 22.1162949 4.25063495e-15 69.4181366
v 20.8019485 4.64740466e-15 75.8978729
v 20.6023331 5.10452717e-15 83.3632507
v 14.5354538 5.46207841e-15 89.202507
v 6.21006012 5.66071018e-15 92.4464111
v 4.4360733 6.04778602e-15 98.7678375
v -3.10990906 6.73232078e-15 109.947136
v -6.10501862 5.74949066e-15 93.8963013
v -17.4550705 5.49173473e-15 89.6868286
v -15.9152222 5.09248575e-15 83.1666031
v -24.393013 4.54853728e-15 74.2832489
v -22.406311 4.22019978e-15 68.9210892
v -30.3285751 3.90998413e-15 63.8548851
v -22.6024628 3.58278504e-15 58.5113144
v -31.3682632 3.29632295e-15 53.8330383
v -27.1499176 2.96624522e-15 48.4424591
v -31.4412537 2.82576671e-15 46.1482697
v -34.8792343 2.51112023e-15 41.0097046
v -25.0214462 2.19999486e-15 35.9286423
v -34.972168 1.94732599e-15 31.8022461
v -30.2562485 1.53383955e-15 25.0494995
v -23.0904312 1.28861536e-15 21.0446854
v -29.3314209 8.9909498e-16 14.6833344
v -24.2009659 4.41918185e-16 7.21707153
v -13.7193451 5.08000665e-17 0.829627991
v -4.44342041 0 0
vt 0.141490102 0.419678628 0.5
vt 0.153281868 0.482870907 0.5
vt 0.182990462 0.438857913 0.5
vt 0.148031831 0.050008148 0.5
vt 0.0746183991 0.132861257 0.5
vt 0.243161619 0.103281975 0.5
vt 0.25259763 0.323307902 0.5
vt 0.263440967 0.274396807 0.5
vt 0.077311784 0.321351022 0.5
vt 0.247423023 0.34881869 0.5
vt 0.102867246 0.377435744 0.5
vt 0.189974666 0.413970411 0.5
vt 0.25585562 0.0816224813 0.5
vt 0.184053868 0.0535551012 0.5
vt 0.243161619 0.103281975 0.5
vt 0.247423023 0.34881869 0.5
vt 0.189974666 0.413970411 0.5
vt 0.222751796 0.401199132 0.5
vt 0.222751796 0.401199132 0.5
vt 0.246637136 0.378209949 0.5
vt 0.247423023 0.34881869 0.5
vt 0.250810146 0.136598825 0.5
vt 0.243161619 0.103281975 0.5
vt 0.0746183991 0.132861257 0.5
vt 0.25259763 0.323307902 0.5
vt 0.102867246 0.377435744 0.5
vt 0.247423023 0.34881869 0.5
vt 0.0765395164 0.280367672 0.5
vt 0.263440967 0.274396807 0.5
vt 0.251700491 0.240695238 0.5
vt 0.251700491 0.240695238 0.5
vt 0.250810146 0.136598825 0.5
vt 0.0670159757 0.191459507 0.5
vt 0.243161619 0.103281975 0.5
vt 0.250810146 0.136598825 0.5
vt 0.270048678 0.125319153 0.5
vt 0.281803578 0.254899323 0.5
vt 0.251700491 0.240695238 0.5
vt 0.263440967 0.274396807 0.5
vt 0.250810146 0.136598825 0.5
vt 0.266407132 0.187308788 0.5
vt 0.283485949 0.150844783 0.5
vt 0.250810146 0.136598825 0.5
vt 0.251700491 0.240695238 0.5
vt 0.266407132 0.187308788 0.5
vt 0.251700491 0.240695238 0.5
vt 0.28240931 0.224602133 0.5
vt 0.266407132 0.187308788 0.5
vt 0.283485949 0.150844783 0.5
vt 0.266407132 0.187308788 0.5
vt 0.295391172 0.173219442 0.5
vt 0.28240931 0.224602133 0.5
vt 0.303211331 0.201583862 0.5
vt 0.266407132 0.187308788 0.5
vt 0.263440967 0.274396807 0.5
vt 0.25259763 0.323307902 0.5
vt 0.276644588 0.301987946 0.5
vt 0.182990462 0.438857913 0.5
vt 0.189974666 0.413970411 0.5
vt 0.141490102 0.419678628 0.5
vt 0.141490102 0.419678628 0.5
vt 0.189974666 0.413970411 0.5
vt 0.102867246 0.377435744 0.5
vt 0.102867246 0.377435744 0.5
vt 0.25259763 0.323307902 0.5
vt 0.077311784 0.321351022 0.5
vt 0.251700491 0.240695238 0.5
vt 0.0586361587 0.240726501 0.5
vt 0.0765395164 0.280367672 0.5
vt 0.102867246 0.377435744 0.5
vt 0.077311784 0.321351022 0.5
vt 0.0694901049 0.342461884 0.5
vt 0.0670159757 0.191459507 0.5
vt 0.250810146 0.136598825 0.5
vt 0.0746183991 0.132861257 0.5
vt 0.141490102 0.419678628 0.5
vt 0.102867246 0.377435744 0.5
vt 0.0968048573 0.403105915 0.5
vt 0.077311784 0.321351022 0.5
vt 0.263440967 0.274396807 0.5
vt 0.0765395164 0.280367672 0.5
vt 0.148031831 0.050008148 0.5
vt 0.243161619 0.103281975 0.5
vt 0.184053868 0.0535551012 0.5
vt 0.0702462196 0.0784218311 0.5
vt 0.148031831 0.050008148 0.5
vt 0.111512423 0.0532744229 0.5
vt 0.0746183991 0.132861257 0.5
vt 0.148031831 0.050008148 0.5
vt 0.0702462196 0.0784218311 0.5
vt 0.0500475764 0.107816547 0.5
vt 0.0746183991 0.132861257 0.5
vt 0.0702462196 0.0784218311 0.5
vt 0.0464065075 0.148628235 0.5
vt 0.0670159757 0.191459507 0.5
vt 0.0746183991 0.132861257 0.5
vt 0.0586361587 0.240726501 0.5
vt 0.0420285165 0.261949241 0.5
vt 0.0765395164 0.280367672 0.5
vt 0.251700491 0.240695238 0.5
vt 0.0670159757 0.191459507 0.5
vt 0.0586361587 0.240726501 0.5
vt 0.077311784 0.321351022 0.5
vt 0.0765395164 0.280367672 0.5
vt 0.0461217761 0.30140534 0.5
vt 0.0670159757 0.191459507 0.5
vt 0.0464065075 0.148628235 0.5
vt 0.0278398991 0.175213844 0.5
vt 0.0586361587 0.240726501 0.5
vt 0.0670159757 0.191459507 0.5
vt 0.0282057822 0.21146369 0.5
vt 0.0586361587 0.240726501 0.5
vt 0.0282057822 0.21146369 0.5
vt 0.0417411327 0.231694251 0.5
vn 0 1 -6.12323426e-17
vn 0 0.99999994 -6.1232336e-17
vn 0 0.99999994 -6.1232336e-17
vn 0 1 -6.12323426e-17
vn 0 1 -6.12323426e-17
vn 0 1 -6.12323426e-17
vn 0 1 -6.12323426e-17
vn 0 1 -6.12323426e-17
vn 0 1 -6.12323426e-17
vn 0 1 -6.12323426e-17
vn 0 1 -6.12323426e-17
vn 0 1 -6.12323426e-17
vn 0 1 -6.12323426e-17
vn 0 1 -6.12323426e-17
vn 0 1 -6.12323426e-17
vn 0 1 -6.12323426e-17
vn 0 1 -6.12323426e-17
vn 0 1 -6.12323426e-17
vn 0 1 -6.12323426e-17
vn 0 1 -6.12323426e-17
vn 0 1 -6.12323426e-17
vn 0 1 -6.12323426e-17
vn 0 1 -6.12323426e-17
vn 0 1 -6.12323426e-17
vn 0 1 -6.12323426e-17
vn 0 1 -6.12323426e-17
vn 0 1 -6.12323426e-17
vn 0 1 -6.12323426e-17
vn 0 1 -6.12323426e-17
vn 0 1 -6.12323426e-17
vn 0 1 -6.12323426e-17
vn 0 1 -6.12323426e-17
vn 0 1 -6.12323426e-17
vn 0 1 -6.12323426e-17
vn 0 1 -6.12323426e-17
vn 0 0.99999994 -6.1232336e-17
vn 0 1 -6.12323426e-17
vn 0 1 -6.12323426e-17
vn 0 1 -6.12323426e-17
vn 0 1 -6.12323426e-17
vn 0 1 -6.12323426e-17
vn 0 1 -6.12323426e-17
vn 0 1 -6.12323426e-17
vn 0 1 -6.12323426e-17
vn 0 1 -6.12323426e-17
vn 0 1 -6.12323426e-17
vn 0 1 -6.12323426e-17
vn 0 1 -6.12323426e-17
vn 0 1 -6.12323426e-17
vn 0 1 -6.12323426e-17
vn 0 1 -6.12323426e-17
vn 0 1 -6.12323426e-17
vn 0 1 -6.12323426e-17
vn 0 1 -6.12323426e-17
vn 0 1 -6.12323426e-17
vn 0 1 -6.12323426e-17
vn 0 1 -6.12323426e-17
vn 0 0.99999994 -6.1232336e-17
vn 0 1 -6.12323426e-17
vn 0 1 -6.12323426e-17
vn 0 1 -6.12323426e-17
vn 0 1 -6.12323426e-17
vn 0 1 -6.12323426e-17
vn 0 1 -6.12323426e-17
vn 0 1 -6.12323426e-17
vn 0 1 -6.12323426e-17
vn 0 1 -6.12323426e-17
vn 0 1 -6.12323426e-17
vn 0 1 -6.12323426e-17
vn 0 1 -6.12323426e-17
vn 0 1 -6.12323426e-17
vn 0 1 -6.12323426e-17
vn 0 1 -6.12323426e-17
vn 0 1 -6.12323426e-17
vn 0 1 -6.12323426e-17
vn 0 1 -6.12323426e-17
vn 0 1 -6.12323426e-17
vn 0 1 -6.12323426e-17
vn 0 1 -6.12323426e-17
vn 0 1 -6.12323426e-17
vn 0 1 -6.12323426e-17
vn 0 1 -6.12323426e-17
vn 0 1 -6.12323426e-17
vn 0 1 -6.12323426e-17
vn 0 1 -6.12323426e-17
vn 0 1 -6.12323426e-17
vn 0 0.99999994 -6.1232336e-17
vn 0 1 -6.12323426e-17
vn 0 1 -6.12323426e-17
vn 0 1 -6.12323426e-17
vn 0 1 -6.12323426e-17
vn 0 1 -6.12323426e-17
vn 0 1 -6.12323426e-17
vn 0 0.99999994 -6.1232336e-17
vn 0 1 -6.12323426e-17
vn 0 1 -6.12323426e-17
vn 0 1 -6.12323426e-17
vn 0 1 -6.12323426e-17
vn 0 1 -6.12323426e-17
vn 0 1 -6.12323426e-17
vn 0 1 -6.12323426e-17
vn 0 1 -6.12323426e-17
vn 0 1 -6.12323426e-17
vn 0 1 -6.12323426e-17
vn 0 1 -6.12323426e-17
vn 0 1 -6.12323426e-17
vn 0 0.99999994 -6.1232336e-17
vn 0 1 -6.12323426e-17
vn 0 1 -6.12323426e-17
vn 0 1 -6.12323426e-17
vn 0 1 -6.12323426e-17
vn 0 1 -6.12323426e-17
vn 0 1 -6.12323426e-17
vn 0 1 -6.12323426e-17
g MI_Foliage
f 22/1/1 21/2/2 20/3/3
f 40/4/4 36/5/5 3/6/6
f 15/7/7 13/8/8 26/9/9
f 16/10/10 24/11/11 19/12/12
f 2/13/13 1/14/14 3/15/15
f 16/16/16 19/17/17 18/18/18
f 18/19/19 17/20/20 16/21/21
f 5/22/22 3/23/23 36/24/24
f 15/25/25 24/26/26 16/27/27
f 28/28/28 13/29/29 11/30/30
f 11/31/31 5/32/32 33/33/33
f 3/34/34 5/35/35 4/36/36
f 12/37/37 11/38/38 13/39/39
f 5/40/40 8/41/41 6/42/42
f 5/43/43 11/44/44 8/45/45
f 11/46/46 10/47/47 8/48/48
f 6/49/49 8/50/50 7/51/51
f 10/52/52 9/53/53 8/54/54
f 13/55/55 15/56/56 14/57/57
f 20/58/58 19/59/59 22/60/60
f 22/61/61 19/62/62 24/63/63
f 24/64/64 15/65/65 26/66/66
f 11/67/67 30/68/68 28/69/69
f 24/70/70 26/71/71 25/72/72
f 33/73/73 5/74/74 36/75/75
f 22/76/76 24/77/77 23/78/78
f 26/79/79 13/80/80 28/81/81
f 40/82/82 3/83/83 1/84/84
f 38/85/85 40/86/86 39/87/87
f 36/88/88 40/89/89 38/90/90
f 37/91/91 36/92/92 38/93/93
f 35/94/94 33/95/95 36/96/96
f 30/97/97 29/98/98 28/99/99
f 11/100/100 33/101/101 30/102/102
f 26/103/103 28/104/104 27/105/105
f 33/106/106 35/107/107 34/108/108
f 30/109/109 33/110/110 32/111/111
f 30/112/112 32/113/113 31/114/114
