# File exported by Houdini 16.5.496 (www.sidefx.com)
# 45 points
# 129 vertices
# 43 primitives
# Bounds: [-38.7144394, -0.460540712, 0] to [38.714447, 100.410896, 0]
g 
v 22.3975983 -0.460540712 0
v 24.8556442 4.73792267 0
v 16.5303802 9.60689926 0
v 6.58232117 18.4280891 0
v 4.95076752 25.9500237 0
v 11.4766388 28.4732647 0
v 20.4539413 27.8707142 0
v 26.7592545 31.2505264 0
v 32.7647171 38.3090973 0
v 38.714447 50.0542717 0
v 36.1146774 55.2590446 0
v 19.3530655 49.5325966 0
v 8.61071014 41.7363739 0
v 7.69580841 34.5278625 0
v 7.9850235 41.6127548 0
v 14.5235825 52.7883034 0
v 26.3985519 51.8994598 0
v 33.4644012 62.642025 0
v 29.1180878 75.1170578 0
v 21.9367752 73.4522629 0
v 14.8390884 67.0716019 0
v 21.3268433 76.9186859 0
v 20.1596069 91.3072586 0
v 19.409996 100.410896 0
v 14.1307678 98.4439163 0
v 5.22170258 86.2850494 0
v 3.35653687 74.2715302 0
v 6.07090759 63.1999855 0
v 2.12456512 57.5746613 0
v -2.3613205 67.1163483 0
v -12.7341766 71.6264114 0
v -27.1878014 72.5637589 0
v -20.4500389 58.3774414 0
v -12.0866966 51.3573532 0
v -1.38912964 49.483326 0
v 1.35504913 43.2321091 0
v -4.89638138 40.7790489 0
v -11.5798759 49.1998291 0
v -23.1521034 52.9333038 0
v -38.7144394 54.4702492 0
v -28.5644073 39.8832283 0
v -16.1684532 32.0983353 0
v -4.45015717 33.0442924 0
v -1.29543304 18.6173592 0
v 11.0214691 4.60274267 0
vt 0.866788387 0.5168401 0.5
vt 0.857111096 0.496373683 0.5
vt 0.834011793 0.536009312 0.5
vt 0.857111096 0.496373683 0.5
vt 0.812323213 0.51630789 0.5
vt 0.834011793 0.536009312 0.5
vt 0.763831437 0.571483552 0.5
vt 0.794846177 0.570738375 0.5
vt 0.812323213 0.51630789 0.5
vt 0.834011793 0.536009312 0.5
vt 0.812323213 0.51630789 0.5
vt 0.794846177 0.570738375 0.5
vt 0.794846177 0.570738375 0.5
vt 0.763831437 0.571483552 0.5
vt 0.788422763 0.600352287 0.5
vt 0.800368667 0.662016571 0.5
vt 0.763462543 0.693003058 0.5
vt 0.777295947 0.724858761 0.5
vt 0.777295947 0.724858761 0.5
vt 0.826111019 0.706014812 0.5
vt 0.800368667 0.662016571 0.5
vt 0.826111019 0.706014812 0.5
vt 0.792832732 0.747005701 0.5
vt 0.827353179 0.762248278 0.5
vt 0.827353179 0.762248278 0.5
vt 0.872862875 0.702515423 0.5
vt 0.826111019 0.706014812 0.5
vt 0.85529685 0.787369013 0.5
vt 0.900681138 0.744808972 0.5
vt 0.827353179 0.762248278 0.5
vt 0.872862875 0.702515423 0.5
vt 0.827353179 0.762248278 0.5
vt 0.900681138 0.744808972 0.5
vt 0.85529685 0.787369013 0.5
vt 0.883569717 0.793923259 0.5
vt 0.900681138 0.744808972 0.5
vt 0.852895498 0.801016331 0.5
vt 0.782146275 0.790594459 0.5
vt 0.789489448 0.837891757 0.5
vt 0.824564517 0.885761321 0.5
vt 0.848300099 0.857664227 0.5
vt 0.789489448 0.837891757 0.5
vt 0.845348835 0.893505335 0.5
vt 0.848300099 0.857664227 0.5
vt 0.824564517 0.885761321 0.5
vt 0.789489448 0.837891757 0.5
vt 0.848300099 0.857664227 0.5
vt 0.852895498 0.801016331 0.5
vt 0.79922998 0.634123325 0.5
vt 0.814115167 0.610286295 0.5
vt 0.788422763 0.600352287 0.5
vt 0.79922998 0.634123325 0.5
vt 0.788422763 0.600352287 0.5
vt 0.800368667 0.662016571 0.5
vt 0.849458933 0.60791409 0.5
vt 0.814115167 0.610286295 0.5
vt 0.79922998 0.634123325 0.5
vt 0.849458933 0.60791409 0.5
vt 0.79922998 0.634123325 0.5
vt 0.802832007 0.662503302 0.5
vt 0.802832007 0.662503302 0.5
vt 0.874282956 0.62122041 0.5
vt 0.849458933 0.60791409 0.5
vt 0.845124722 0.693197072 0.5
vt 0.874282956 0.62122041 0.5
vt 0.802832007 0.662503302 0.5
vt 0.897926509 0.649010062 0.5
vt 0.874282956 0.62122041 0.5
vt 0.845124722 0.693197072 0.5
vt 0.897926509 0.649010062 0.5
vt 0.845124722 0.693197072 0.5
vt 0.921350658 0.695250928 0.5
vt 0.911115289 0.715742111 0.5
vt 0.921350658 0.695250928 0.5
vt 0.845124722 0.693197072 0.5
vt 0.792832732 0.747005701 0.5
vt 0.826111019 0.706014812 0.5
vt 0.777295947 0.724858761 0.5
vt 0.792832732 0.747005701 0.5
vt 0.782146275 0.790594459 0.5
vt 0.827353179 0.762248278 0.5
vt 0.782146275 0.790594459 0.5
vt 0.852895498 0.801016331 0.5
vt 0.827353179 0.762248278 0.5
vt 0.72134614 0.70038116 0.5
vt 0.777295947 0.724858761 0.5
vt 0.763462543 0.693003058 0.5
vt 0.774266362 0.668392003 0.5
vt 0.763462543 0.693003058 0.5
vt 0.800368667 0.662016571 0.5
vt 0.800368667 0.662016571 0.5
vt 0.751411259 0.628282487 0.5
vt 0.774266362 0.668392003 0.5
vt 0.751411259 0.628282487 0.5
vt 0.800368667 0.662016571 0.5
vt 0.788422763 0.600352287 0.5
vt 0.763831437 0.571483552 0.5
vt 0.751411259 0.628282487 0.5
vt 0.788422763 0.600352287 0.5
vt 0.774266362 0.668392003 0.5
vt 0.751411259 0.628282487 0.5
vt 0.749654472 0.658734262 0.5
vt 0.749654472 0.658734262 0.5
vt 0.751411259 0.628282487 0.5
vt 0.705276251 0.62455827 0.5
vt 0.759635031 0.762424469 0.5
vt 0.68841958 0.728019297 0.5
vt 0.718797028 0.780180573 0.5
vt 0.777295947 0.724858761 0.5
vt 0.72134614 0.70038116 0.5
vt 0.759635031 0.762424469 0.5
vt 0.749654472 0.658734262 0.5
vt 0.705276251 0.62455827 0.5
vt 0.723341465 0.691886961 0.5
vt 0.677781582 0.706585646 0.5
vt 0.723341465 0.691886961 0.5
vt 0.656473279 0.655207396 0.5
vt 0.72134614 0.70038116 0.5
vt 0.68841958 0.728019297 0.5
vt 0.759635031 0.762424469 0.5
vt 0.723341465 0.691886961 0.5
vt 0.705276251 0.62455827 0.5
vt 0.656473279 0.655207396 0.5
vt 0.66189301 0.783870935 0.5
vt 0.718797028 0.780180573 0.5
vt 0.68841958 0.728019297 0.5
vt 0.656473279 0.655207396 0.5
vt 0.616512477 0.71263665 0.5
vt 0.677781582 0.706585646 0.5
vn 0 0 -1
vn 0 0 -1
vn 0 0 -1
vn 0 0 -1
vn 0 0 -1
vn 0 0 -1
vn 0 0 -1
vn 0 0 -0.99999994
vn 0 0 -1
vn 0 0 -1
vn 0 0 -1
vn 0 0 -0.99999994
vn 0 0 -0.99999994
vn 0 0 -1
vn 0 0 -1
vn 0 0 -1
vn 0 0 -0.99999994
vn 0 0 -1
vn 0 0 -1
vn 0 0 -1
vn 0 0 -1
vn 0 0 -1
vn 0 0 -1
vn 0 0 -0.99999994
vn 0 0 -0.99999994
vn 0 0 -1
vn 0 0 -1
vn 0 0 -1
vn 0 0 -1
vn 0 0 -0.99999994
vn 0 0 -1
vn 0 0 -0.99999994
vn 0 0 -1
vn 0 0 -1
vn 0 0 -1
vn 0 0 -1
vn 0 0 -1
vn 0 0 -1
vn 0 0 -1
vn 0 -0 -1
vn 0 0 -1
vn 0 0 -1
vn 0 -0 -1
vn 0 0 -1
vn 0 -0 -1
vn 0 0 -1
vn 0 0 -1
vn 0 0 -1
vn 0 0 -1
vn 0 0 -0.99999994
vn 0 0 -1
vn 0 0 -1
vn 0 0 -1
vn 0 0 -1
vn 0 0 -1
vn 0 0 -0.99999994
vn 0 0 -1
vn 0 0 -1
vn 0 0 -1
vn 0 0 -1
vn 0 0 -1
vn 0 0 -1
vn 0 0 -1
vn 0 0 -1
vn 0 0 -1
vn 0 0 -1
vn 0 0 -0.99999994
vn 0 0 -1
vn 0 0 -1
vn 0 0 -0.99999994
vn 0 0 -1
vn 0 0 -1
vn 0 -0 -1
vn 0 0 -1
vn 0 0 -1
vn 0 0 -1
vn 0 0 -1
vn 0 0 -1
vn 0 0 -1
vn 0 0 -1
vn 0 0 -0.99999994
vn 0 0 -1
vn 0 0 -1
vn 0 0 -0.99999994
vn 0 0 -0.99999994
vn 0 0 -1
vn 0 0 -0.99999994
vn 0 0 -1
vn 0 0 -0.99999994
vn 0 0 -1
vn 0 0 -1
vn 0 0 -0.99999994
vn 0 0 -1
vn 0 0 -0.99999994
vn 0 0 -1
vn 0 0 -1
vn 0 0 -1
vn 0 0 -0.99999994
vn 0 0 -1
vn 0 0 -1
vn 0 0 -0.99999994
vn 0 0 -1
vn 0 0 -1
vn 0 0 -0.99999994
vn 0 0 -0.99999994
vn 0 0 -1
vn 0 0 -1
vn 0 0 -1
vn 0 0 -1
vn 0 0 -0.99999994
vn 0 0 -1
vn 0 0 -1
vn 0 0 -0.99999994
vn 0 0 -1
vn 0 0 -1
vn 0 0 -1
vn 0 0 -1
vn 0 0 -0.99999994
vn 0 0 -1
vn 0 0 -1
vn 0 0 -1
vn 0 0 -0.99999994
vn 0 0 -1
vn 0 0 -0.99999994
vn 0 0 -1
vn 0 0 -1
vn 0 0 -1
vn 0 0 -1
vn 0 0 -1
g MI_Foliage
f 2/1/1 1/2/2 3/3/3
f 1/4/4 45/5/5 3/6/6
f 44/7/7 4/8/8 45/9/9
f 3/10/10 45/11/11 4/12/12
f 4/13/13 44/14/14 5/15/15
f 15/16/16 35/17/17 29/18/18
f 29/19/19 16/20/20 15/21/21
f 16/22/22 28/23/23 21/24/24
f 21/25/25 17/26/26 16/27/27
f 20/28/28 18/29/29 21/30/30
f 17/31/31 21/32/32 18/33/33
f 20/34/34 19/35/35 18/36/36
f 22/37/37 27/38/38 26/39/39
f 25/40/40 23/41/41 26/42/42
f 24/43/43 23/44/44 25/45/45
f 26/46/46 23/47/47 22/48/48
f 14/49/49 6/50/50 5/51/51
f 14/52/52 5/53/53 15/54/54
f 7/55/55 6/56/56 14/57/57
f 7/58/58 14/59/59 13/60/60
f 13/61/61 8/62/62 7/63/63
f 12/64/64 8/65/65 13/66/66
f 9/67/67 8/68/68 12/69/69
f 9/70/70 12/71/71 10/72/72
f 11/73/73 10/74/74 12/75/75
f 28/76/76 16/77/77 29/78/78
f 28/79/79 27/80/80 21/81/81
f 27/82/82 22/83/83 21/84/84
f 34/85/85 29/86/86 35/87/87
f 36/88/88 35/89/89 15/90/90
f 15/91/91 43/92/92 36/93/93
f 43/94/94 15/95/95 5/96/96
f 44/97/97 43/98/98 5/99/99
f 36/100/100 43/101/101 37/102/102
f 37/103/103 43/104/104 42/105/105
f 30/106/106 33/107/107 31/108/108
f 29/109/109 34/110/110 30/111/111
f 37/112/112 42/113/113 38/114/114
f 39/115/115 38/116/116 41/117/117
f 34/118/118 33/119/119 30/120/120
f 38/121/121 42/122/122 41/123/123
f 32/124/124 31/125/125 33/126/126
f 41/127/127 40/128/128 39/129/129
