# File exported by Houdini 16.5.496 (www.sidefx.com)
# 41 points
# 123 vertices
# 41 primitives
# Bounds: [-30.5498619, 0, 0] to [30.5498581, 7.0916834e-15, 115.815971]
g 
v -2.55116272 0 0
v 2.99286652 2.31020904e-16 3.77285767
v -0.198387146 1.09458584e-15 17.8759422
v 2.29357147 1.78758172e-15 29.1934242
v 13.4136581 1.60711214e-15 26.2461319
v 30.5498581 2.19876539e-15 35.9085617
v 19.3362427 2.76065508e-15 45.0849152
v 18.9723663 3.0929389e-15 50.5115242
v 23.8750076 3.84156589e-15 62.7375259
v 9.51032257 3.66119276e-15 59.7918129
v 1.41782379 3.40517282e-15 55.6106911
v 1.78308868 3.77068067e-15 61.5798836
v 10.2842484 3.95509202e-15 64.5915527
v 20.8310699 4.18355417e-15 68.3226242
v 22.4982605 4.86695348e-15 79.4833755
v 14.5287247 5.14949191e-15 84.09758
v 6.13534546 4.70153684e-15 76.7819214
v 5.60765839 5.12412454e-15 83.6833038
v 12.3988876 5.8506624e-15 95.5485611
v 9.54516602 6.59282038e-15 107.668922
v 0.341117859 7.0916834e-15 115.815971
v -8.42183685 6.22406713e-15 101.646729
v -0.399734497 5.52416635e-15 90.2164764
v -1.63008881 4.72687117e-15 77.1956635
v -4.28279114 4.02965972e-15 65.8093338
v -9.92020416 4.78984807e-15 78.2241516
v -29.3662987 5.12802344e-15 83.7469711
v -30.5498619 4.72598052e-15 77.1811142
v -20.3392181 3.87766601e-15 63.3270912
v -5.87879944 3.68153257e-15 60.1239891
v -7.32715607 3.03920694e-15 49.6340141
v -16.7587128 3.53086319e-15 57.6633682
v -30.3487358 3.60182804e-15 58.8223114
v -29.6260948 3.04840424e-15 49.7842178
v -20.3199234 2.64660357e-15 43.2223129
v -9.75273895 2.76721365e-15 45.192028
v -7.49728394 2.11510649e-15 34.5423088
v -5.99835968 9.25071046e-16 15.1075554
v 3.26055908 2.27397536e-15 37.1368332
v -1.36564636 2.25105274e-15 36.7624779
v 0.91342926 2.60886169e-15 42.6059418
vt 0.835505903 0.340016812 0.5
vt 0.848069906 0.28449285 0.5
vt 0.826243043 0.269639075 0.5
vt 0.845316768 0.384573817 0.5
vt 0.806770086 0.405632436 0.5
vt 0.849123836 0.415847093 0.5
vt 0.806770086 0.405632436 0.5
vt 0.845316768 0.384573817 0.5
vt 0.835505903 0.340016812 0.5
vt 0.819425583 0.528730929 0.5
vt 0.82986927 0.573559046 0.5
vt 0.843307018 0.512079597 0.5
vt 0.860441864 0.57193011 0.5
vt 0.82986927 0.573559046 0.5
vt 0.858364344 0.599100947 0.5
vt 0.834713221 0.62482208 0.5
vt 0.858364344 0.599100947 0.5
vt 0.82986927 0.573559046 0.5
vt 0.834713221 0.62482208 0.5
vt 0.885101438 0.645814538 0.5
vt 0.858364344 0.599100947 0.5
vt 0.860441864 0.57193011 0.5
vt 0.843307018 0.512079597 0.5
vt 0.82986927 0.573559046 0.5
vt 0.876776099 0.52393657 0.5
vt 0.843307018 0.512079597 0.5
vt 0.860441864 0.57193011 0.5
vt 0.876776099 0.52393657 0.5
vt 0.860441864 0.57193011 0.5
vt 0.918299079 0.538625777 0.5
vt 0.860441864 0.57193011 0.5
vt 0.893486619 0.600731909 0.5
vt 0.924862742 0.582565784 0.5
vt 0.918299079 0.538625777 0.5
vt 0.860441864 0.57193011 0.5
vt 0.924862742 0.582565784 0.5
vt 0.843307018 0.512079597 0.5
vt 0.841868937 0.488578826 0.5
vt 0.813142061 0.506347716 0.5
vt 0.841868937 0.488578826 0.5
vt 0.839883089 0.437379003 0.5
vt 0.807439923 0.465048581 0.5
vt 0.839883089 0.437379003 0.5
vt 0.841868937 0.488578826 0.5
vt 0.873729169 0.50503993 0.5
vt 0.849123836 0.415847093 0.5
vt 0.873729169 0.50503993 0.5
vt 0.910981297 0.468503356 0.5
vt 0.839883089 0.437379003 0.5
vt 0.873729169 0.50503993 0.5
vt 0.849123836 0.415847093 0.5
vt 0.889096618 0.372970313 0.5
vt 0.849123836 0.415847093 0.5
vt 0.912413895 0.447138757 0.5
vt 0.912413895 0.447138757 0.5
vt 0.849123836 0.415847093 0.5
vt 0.910981297 0.468503356 0.5
vt 0.93028307 0.516637206 0.5
vt 0.910981297 0.468503356 0.5
vt 0.873729169 0.50503993 0.5
vt 0.912413895 0.447138757 0.5
vt 0.956561983 0.411011368 0.5
vt 0.889096618 0.372970313 0.5
vt 0.849123836 0.415847093 0.5
vt 0.889096618 0.372970313 0.5
vt 0.845316768 0.384573817 0.5
vt 0.80313015 0.66982305 0.5
vt 0.837629914 0.725607455 0.5
vt 0.87386632 0.693532467 0.5
vt 0.835505903 0.340016812 0.5
vt 0.826243043 0.269639075 0.5
vt 0.812671363 0.329117656 0.5
vt 0.819425583 0.528730929 0.5
vt 0.843307018 0.512079597 0.5
vt 0.813142061 0.506347716 0.5
vt 0.80313015 0.66982305 0.5
vt 0.885101438 0.645814538 0.5
vt 0.834713221 0.62482208 0.5
vt 0.813142061 0.506347716 0.5
vt 0.841868937 0.488578826 0.5
vt 0.807439923 0.465048581 0.5
vt 0.839883089 0.437379003 0.5
vt 0.797890306 0.447560459 0.5
vt 0.807439923 0.465048581 0.5
vt 0.797890306 0.447560459 0.5
vt 0.839883089 0.437379003 0.5
vt 0.806770086 0.405632436 0.5
vt 0.80313015 0.66982305 0.5
vt 0.87386632 0.693532467 0.5
vt 0.885101438 0.645814538 0.5
vt 0.835505903 0.340016812 0.5
vt 0.812671363 0.329117656 0.5
vt 0.806770086 0.405632436 0.5
vt 0.806770086 0.405632436 0.5
vt 0.830910385 0.414373249 0.5
vt 0.849123836 0.415847093 0.5
vt 0.830910385 0.414373249 0.5
vt 0.806770086 0.405632436 0.5
vt 0.839883089 0.437379003 0.5
vt 0.819425583 0.528730929 0.5
vt 0.813142061 0.506347716 0.5
vt 0.797231019 0.577608228 0.5
vt 0.797231019 0.577608228 0.5
vt 0.813142061 0.506347716 0.5
vt 0.756211281 0.51895833 0.5
vt 0.807439923 0.465048581 0.5
vt 0.797890306 0.447560459 0.5
vt 0.770307779 0.496660233 0.5
vt 0.770307779 0.496660233 0.5
vt 0.797890306 0.447560459 0.5
vt 0.756287217 0.439805686 0.5
vt 0.797231019 0.577608228 0.5
vt 0.756211281 0.51895833 0.5
vt 0.716011882 0.573501706 0.5
vt 0.770307779 0.496660233 0.5
vt 0.756287217 0.439805686 0.5
vt 0.719648778 0.465639949 0.5
vt 0.716011882 0.573501706 0.5
vt 0.720671594 0.599351585 0.5
vt 0.797231019 0.577608228 0.5
vt 0.770307779 0.496660233 0.5
vt 0.719648778 0.465639949 0.5
vt 0.71680373 0.501222968 0.5
vn 0 1 -6.12323426e-17
vn 0 1 -6.12323426e-17
vn 0 0.99999994 -6.1232336e-17
vn 0 1 -6.12323426e-17
vn 0 1 -6.12323426e-17
vn 0 1 -6.12323426e-17
vn 0 1 -6.12323426e-17
vn 0 1 -6.12323426e-17
vn 0 1 -6.12323426e-17
vn 0 1 -6.12323426e-17
vn 0 1 -6.12323426e-17
vn 0 1 -6.12323426e-17
vn 0 1 -6.12323426e-17
vn 0 1 -6.12323426e-17
vn 0 1 -6.12323426e-17
vn 0 1 -6.12323426e-17
vn 0 1 -6.12323426e-17
vn 0 1 -6.12323426e-17
vn 0 1 -6.12323426e-17
vn 0 1 -6.12323426e-17
vn 0 1 -6.12323426e-17
vn 0 1 -6.12323426e-17
vn 0 1 -6.12323426e-17
vn 0 1 -6.12323426e-17
vn 0 1 -6.12323426e-17
vn 0 1 -6.12323426e-17
vn 0 1 -6.12323426e-17
vn 0 1 -6.12323426e-17
vn 0 1 -6.12323426e-17
vn 0 0.99999994 -6.1232336e-17
vn 0 1 -6.12323426e-17
vn 0 1 -6.12323426e-17
vn 0 1 -6.12323426e-17
vn 0 0.99999994 -6.1232336e-17
vn 0 1 -6.12323426e-17
vn 0 1 -6.12323426e-17
vn 0 1 -6.12323426e-17
vn 0 1 -6.12323426e-17
vn 0 1 -6.12323426e-17
vn 0 1 -6.12323426e-17
vn 0 1 -6.12323426e-17
vn 0 1 -6.12323426e-17
vn 0 1 -6.12323426e-17
vn 0 1 -6.12323426e-17
vn 0 1 -6.12323426e-17
vn 0 1 -6.12323426e-17
vn 0 1 -6.12323426e-17
vn 0 1 -6.12323426e-17
vn 0 1 -6.12323426e-17
vn 0 1 -6.12323426e-17
vn 0 1 -6.12323426e-17
vn 0 1 -6.12323426e-17
vn 0 1 -6.12323426e-17
vn 0 1 -6.12323426e-17
vn 0 1 -6.12323426e-17
vn 0 1 -6.12323426e-17
vn 0 1 -6.12323426e-17
vn 0 1 -6.12323426e-17
vn 0 1 -6.12323426e-17
vn 0 1 -6.12323426e-17
vn 0 1 -6.12323426e-17
vn 0 1 -6.12323426e-17
vn 0 1 -6.12323426e-17
vn 0 1 -6.12323426e-17
vn 0 1 -6.12323426e-17
vn 0 1 -6.12323426e-17
vn 0 1 -6.12323426e-17
vn 0 0.99999994 -6.1232336e-17
vn 0 1 -6.12323426e-17
vn 0 1 -6.12323426e-17
vn 0 0.99999994 -6.1232336e-17
vn 0 1 -6.12323426e-17
vn 0 1 -6.12323426e-17
vn 0 1 -6.12323426e-17
vn 0 1 -6.12323426e-17
vn 0 1 -6.12323426e-17
vn 0 1 -6.12323426e-17
vn 0 1 -6.12323426e-17
vn 0 1 -6.12323426e-17
vn 0 1 -6.12323426e-17
vn 0 1 -6.12323426e-17
vn 0 1 -6.12323426e-17
vn 0 1 -6.12323426e-17
vn 0 1 -6.12323426e-17
vn 0 1 -6.12323426e-17
vn 0 1 -6.12323426e-17
vn 0 1 -6.12323426e-17
vn 0 1 -6.12323426e-17
vn 0 1 -6.12323426e-17
vn 0 1 -6.12323426e-17
vn 0 1 -6.12323426e-17
vn 0 1 -6.12323426e-17
vn 0 1 -6.12323426e-17
vn 0 1 -6.12323426e-17
vn 0 1 -6.12323426e-17
vn 0 1 -6.12323426e-17
vn 0 1 -6.12323426e-17
vn 0 1 -6.12323426e-17
vn 0 1 -6.12323426e-17
vn 0 1 -6.12323426e-17
vn 0 1 -6.12323426e-17
vn 0 1 -6.12323426e-17
vn 0 1 -6.12323426e-17
vn 0 1 -6.12323426e-17
vn 0 1 -6.12323426e-17
vn 0 1 -6.12323426e-17
vn 0 1 -6.12323426e-17
vn 0 1 -6.12323426e-17
vn 0 1 -6.12323426e-17
vn 0 1 -6.12323426e-17
vn 0 1 -6.12323426e-17
vn 0 1 -6.12323426e-17
vn 0 1 -6.12323426e-17
vn 0 1 -6.12323426e-17
vn 0 1 -6.12323426e-17
vn 0 1 -6.12323426e-17
vn 0 1 -6.12323426e-17
vn 0 1 -6.12323426e-17
vn 0 1 -6.12323426e-17
vn 0 1 -6.12323426e-17
vn 0 1 -6.12323426e-17
vn 0 1 -6.12323426e-17
vn 0 1 -6.12323426e-17
g MI_Foliage
f 3/1/1 2/2/2 1/3/3
f 4/4/4 37/5/5 39/6/6
f 37/7/7 4/8/8 3/9/9
f 25/10/10 24/11/11 12/12/12
f 17/13/13 24/14/14 18/15/15
f 23/16/16 18/17/17 24/18/18
f 23/19/19 19/20/20 18/21/21
f 17/22/22 12/23/23 24/24/24
f 13/25/25 12/26/26 17/27/27
f 13/28/28 17/29/29 14/30/30
f 17/31/31 16/32/32 15/33/33
f 14/34/34 17/35/35 15/36/36
f 12/37/37 11/38/38 30/39/39
f 11/40/40 41/41/41 31/42/42
f 41/43/43 11/44/44 10/45/45
f 39/46/46 10/47/47 8/48/48
f 41/49/49 10/50/50 39/51/51
f 5/52/52 39/53/53 7/54/54
f 7/55/55 39/56/56 8/57/57
f 9/58/58 8/59/59 10/60/60
f 7/61/61 6/62/62 5/63/63
f 39/64/64 5/65/65 4/66/66
f 22/67/67 21/68/68 20/69/69
f 3/70/70 1/71/71 38/72/72
f 25/73/73 12/74/74 30/75/75
f 22/76/76 19/77/77 23/78/78
f 30/79/79 11/80/80 31/81/81
f 41/82/82 36/83/83 31/84/84
f 36/85/85 41/86/86 37/87/87
f 22/88/88 20/89/89 19/90/90
f 3/91/91 38/92/92 37/93/93
f 37/94/94 40/95/95 39/96/96
f 40/97/97 37/98/98 41/99/99
f 25/100/100 30/101/101 26/102/102
f 26/103/103 30/104/104 29/105/105
f 31/106/106 36/107/107 32/108/108
f 32/109/109 36/110/110 35/111/111
f 26/112/112 29/113/113 28/114/114
f 32/115/115 35/116/116 34/117/117
f 28/118/118 27/119/119 26/120/120
f 32/121/121 34/122/122 33/123/123
