# File exported by Houdini 16.5.496 (www.sidefx.com)
# 40 points
# 114 vertices
# 38 primitives
# Bounds: [-32.8643646, -1.48689961, 0] to [32.8643684, 121.483788, 0]
g 
v -10.9055557 -1.48689961 0
v 3.74595642 -0.785897017 0
v 8.770401 7.97539759 0
v 19.981041 15.5184593 0
v 16.7164154 20.2849598 0
v 20.7972794 23.970541 0
v 12.892746 29.4406281 0
v 4.32373047 26.5004501 0
v 5.55521393 38.5934067 0
v 5.27754974 55.3699379 0
v 5.80821991 65.3439636 0
v 14.6383438 67.4728851 0
v 26.0178871 78.2229309 0
v 17.6675568 81.4970016 0
v 25.9446564 92.0242081 0
v 32.8643684 102.127998 0
v 13.8832779 97.6402054 0
v 4.58097076 92.6775284 0
v 6.83735657 108.425751 0
v 12.587532 121.483788 0
v 2.89211273 118.611137 0
v -8.02342987 102.538559 0
v -11.1878662 95.0524902 0
v -22.7661972 105.823265 0
v -30.4924164 113.508446 0
v -32.8643646 107.342186 0
v -26.9049225 92.8948212 0
v -19.9196472 79.3549042 0
v -17.8471298 71.0783615 0
v -21.2230988 62.3656883 0
v -9.41704559 63.1092758 0
v -2.76617432 62.5132561 0
v -2.15627289 46.8437614 0
v -9.50330353 34.6260262 0
v -15.4414825 37.285881 0
v -17.8191986 26.2632008 0
v -20.1225967 18.7510376 0
v -29.5852127 16.924736 0
v -21.5061569 11.7556934 0
v -16.1307983 4.26898384 0
vt 0.181143194 0.6460886 0.5
vt 0.121857673 0.630468965 0.5
vt 0.150783002 0.67857033 0.5
vt 0.116337001 0.488292128 0.5
vt 0.193801403 0.525545239 0.5
vt 0.174020112 0.491051972 0.5
vt 0.182139277 0.751405776 0.5
vt 0.180050015 0.712137938 0.5
vt 0.148381799 0.740261257 0.5
vt 0.180050015 0.712137938 0.5
vt 0.150783002 0.67857033 0.5
vt 0.148381799 0.740261257 0.5
vt 0.181143194 0.6460886 0.5
vt 0.150783002 0.67857033 0.5
vt 0.180050015 0.712137938 0.5
vt 0.121857673 0.630468965 0.5
vt 0.181143194 0.6460886 0.5
vt 0.176294833 0.598478556 0.5
vt 0.121857673 0.630468965 0.5
vt 0.176294833 0.598478556 0.5
vt 0.0891179442 0.597544491 0.5
vt 0.0891179442 0.597544491 0.5
vt 0.193801403 0.525545239 0.5
vt 0.0957651734 0.510953069 0.5
vt 0.176294833 0.598478556 0.5
vt 0.193801403 0.525545239 0.5
vt 0.0891179442 0.597544491 0.5
vt 0.176294833 0.598478556 0.5
vt 0.210031092 0.610054016 0.5
vt 0.193801403 0.525545239 0.5
vt 0.193801403 0.525545239 0.5
vt 0.210031092 0.610054016 0.5
vt 0.225084931 0.574008107 0.5
vt 0.210031092 0.610054016 0.5
vt 0.241151303 0.588518262 0.5
vt 0.225084931 0.574008107 0.5
vt 0.225084931 0.574008107 0.5
vt 0.237937778 0.55524236 0.5
vt 0.193801403 0.525545239 0.5
vt 0.177307576 0.859018207 0.5
vt 0.182139277 0.751405776 0.5
vt 0.148381799 0.740261257 0.5
vt 0.127683967 0.897841215 0.5
vt 0.186190993 0.921019077 0.5
vt 0.177307576 0.859018207 0.5
vt 0.170658529 0.961119056 0.5
vt 0.208829463 0.972428679 0.5
vt 0.186190993 0.921019077 0.5
vt 0.177307576 0.859018207 0.5
vt 0.0808484554 0.806566954 0.5
vt 0.115225554 0.868368506 0.5
vt 0.177307576 0.859018207 0.5
vt 0.12219727 0.742607772 0.5
vt 0.0808484554 0.806566954 0.5
vt 0.177307576 0.859018207 0.5
vt 0.213930845 0.878556311 0.5
vt 0.228829563 0.815000415 0.5
vt 0.182139277 0.751405776 0.5
vt 0.177307576 0.859018207 0.5
vt 0.228829563 0.815000415 0.5
vt 0.216903538 0.759787321 0.5
vt 0.182139277 0.751405776 0.5
vt 0.228829563 0.815000415 0.5
vt 0.213930845 0.878556311 0.5
vt 0.261416584 0.856446087 0.5
vt 0.228829563 0.815000415 0.5
vt 0.261704892 0.802110314 0.5
vt 0.216903538 0.759787321 0.5
vt 0.228829563 0.815000415 0.5
vt 0.288659543 0.896224797 0.5
vt 0.261416584 0.856446087 0.5
vt 0.213930845 0.878556311 0.5
vt 0.170658529 0.961119056 0.5
vt 0.186190993 0.921019077 0.5
vt 0.127683967 0.897841215 0.5
vt 0.115225554 0.868368506 0.5
vt 0.127683967 0.897841215 0.5
vt 0.177307576 0.859018207 0.5
vt 0.12219727 0.742607772 0.5
vt 0.177307576 0.859018207 0.5
vt 0.148381799 0.740261257 0.5
vt 0.0808484554 0.806566954 0.5
vt 0.12219727 0.742607772 0.5
vt 0.0890079737 0.773982167 0.5
vt 0.115225554 0.868368506 0.5
vt 0.053347379 0.859873712 0.5
vt 0.0696415603 0.910773098 0.5
vt 0.116337001 0.488292128 0.5
vt 0.0957651734 0.510953069 0.5
vt 0.193801403 0.525545239 0.5
vt 0.0891179442 0.597544491 0.5
vt 0.0957651734 0.510953069 0.5
vt 0.0746023655 0.54042834 0.5
vt 0.0891179442 0.597544491 0.5
vt 0.0746023655 0.54042834 0.5
vt 0.0800494254 0.567969024 0.5
vt 0.0891179442 0.597544491 0.5
vt 0.0984790325 0.640940905 0.5
vt 0.121857673 0.630468965 0.5
vt 0.0890079737 0.773982167 0.5
vt 0.12219727 0.742607772 0.5
vt 0.0757167637 0.73968029 0.5
vt 0.115225554 0.868368506 0.5
vt 0.0808484554 0.806566954 0.5
vt 0.053347379 0.859873712 0.5
vt 0.0746023655 0.54042834 0.5
vt 0.0427950323 0.560778856 0.5
vt 0.0800494254 0.567969024 0.5
vt 0.0696415603 0.910773098 0.5
vt 0.029884994 0.916753054 0.5
vt 0.0392233729 0.941029668 0.5
vt 0.053347379 0.859873712 0.5
vt 0.029884994 0.916753054 0.5
vt 0.0696415603 0.910773098 0.5
vn 0 0 -0.99999994
vn 0 0 -1
vn 0 0 -1
vn 0 0 -1
vn 0 0 -1
vn 0 0 -1
vn 0 0 -1
vn 0 0 -1
vn 0 0 -1
vn 0 0 -1
vn 0 0 -1
vn 0 0 -1
vn 0 0 -0.99999994
vn 0 0 -1
vn 0 0 -1
vn 0 0 -1
vn 0 0 -0.99999994
vn 0 0 -1
vn 0 0 -1
vn 0 0 -1
vn 0 0 -1
vn 0 0 -1
vn 0 0 -1
vn 0 0 -0.99999994
vn 0 0 -1
vn 0 0 -1
vn 0 0 -1
vn 0 0 -1
vn 0 0 -1
vn 0 0 -1
vn 0 0 -1
vn 0 0 -1
vn 0 0 -1
vn 0 0 -1
vn 0 0 -1
vn 0 0 -1
vn 0 0 -1
vn 0 -0 -1
vn 0 0 -1
vn 0 0 -1
vn 0 0 -1
vn 0 0 -1
vn 0 0 -1
vn 0 0 -1
vn 0 0 -1
vn 0 0 -1
vn 0 0 -1
vn 0 0 -1
vn 0 0 -1
vn 0 0 -1
vn 0 0 -1
vn 0 0 -1
vn 0 0 -1
vn 0 0 -1
vn 0 0 -1
vn 0 0 -1
vn 0 0 -0.99999994
vn 0 0 -1
vn 0 0 -1
vn 0 0 -0.99999994
vn 0 0 -0.99999994
vn 0 0 -1
vn 0 0 -0.99999994
vn 0 0 -1
vn 0 0 -1
vn 0 0 -0.99999994
vn 0 0 -1
vn 0 0 -0.99999994
vn 0 0 -0.99999994
vn 0 0 -0.99999994
vn 0 0 -1
vn 0 0 -1
vn 0 0 -1
vn 0 0 -1
vn 0 0 -1
vn 0 0 -1
vn 0 0 -1
vn 0 0 -1
vn 0 0 -1
vn 0 0 -1
vn 0 0 -1
vn 0 0 -1
vn 0 0 -1
vn 0 0 -1
vn 0 0 -1
vn 0 0 -1
vn 0 0 -1
vn 0 0 -1
vn 0 0 -0.99999994
vn 0 0 -1
vn 0 0 -1
vn 0 0 -0.99999994
vn 0 0 -1
vn 0 0 -1
vn 0 0 -1
vn 0 0 -1
vn 0 0 -1
vn 0 0 -1
vn 0 0 -1
vn 0 0 -1
vn 0 0 -1
vn 0 -0 -1
vn 0 0 -1
vn 0 0 -1
vn 0 0 -1
vn 0 0 -1
vn 0 0 -1
vn 0 0 -1
vn 0 0 -1
vn 0 0 -1
vn 0 0 -1
vn 0 0 -1
vn 0 0 -1
vn 0 0 -1
g MI_Foliage
f 9/1/1 34/2/2 33/3/3
f 1/4/4 3/5/5 2/6/6
f 11/7/7 10/8/8 32/9/9
f 10/10/10 33/11/11 32/12/12
f 9/13/13 33/14/14 10/15/15
f 34/16/16 9/17/17 8/18/18
f 34/19/19 8/20/20 36/21/21
f 36/22/22 3/23/23 40/24/24
f 8/25/25 3/26/26 36/27/27
f 8/28/28 7/29/29 3/30/30
f 3/31/31 7/32/32 5/33/33
f 7/34/34 6/35/35 5/36/36
f 5/37/37 4/38/38 3/39/39
f 18/40/40 11/41/41 32/42/42
f 22/43/43 19/44/44 18/45/45
f 21/46/46 20/47/47 19/48/48
f 18/49/49 28/50/50 23/51/51
f 18/52/52 31/53/53 28/54/54
f 18/55/55 17/56/56 14/57/57
f 11/58/58 18/59/59 14/60/60
f 12/61/61 11/62/62 14/63/63
f 17/64/64 15/65/65 14/66/66
f 13/67/67 12/68/68 14/69/69
f 16/70/70 15/71/71 17/72/72
f 21/73/73 19/74/74 22/75/75
f 23/76/76 22/77/77 18/78/78
f 31/79/79 18/80/80 32/81/81
f 28/82/82 31/83/83 29/84/84
f 23/85/85 27/86/86 24/87/87
f 1/88/88 40/89/89 3/90/90
f 36/91/91 40/92/92 39/93/93
f 36/94/94 39/95/95 37/96/96
f 36/97/97 35/98/98 34/99/99
f 29/100/100 31/101/101 30/102/102
f 23/103/103 28/104/104 27/105/105
f 39/106/106 38/107/107 37/108/108
f 24/109/109 26/110/110 25/111/111
f 27/112/112 26/113/113 24/114/114
