# File exported by Houdini 16.5.496 (www.sidefx.com)
# 47 points
# 135 vertices
# 45 primitives
# Bounds: [-32.7806778, -61.8765831, 0] to [32.7806778, 61.5773277, 0]
g 
v -0.804870605 -61.8765831 0
v 2.25830078 -55.6705589 0
v -0.991264343 -36.2867088 0
v 4.14513397 -30.126255 0
v 15.5678711 -32.8714561 0
v 25.7398911 -27.5113945 0
v 32.7806778 -24.1617241 0
v 24.9861069 -16.7705727 0
v 16.9546204 -12.83321 0
v 21.6331635 -3.59843826 0
v 25.3164902 4.78644943 0
v 14.5033951 1.86180115 0
v 4.4078598 -2.91734695 0
v 1.00234222 -11.1077995 0
v -0.804016113 -9.20209122 0
v 1.45095062 4.33503723 0
v 13.3523331 7.68875504 0
v 23.9423752 14.3571014 0
v 23.6869812 24.1944618 0
v 15.9975128 27.0488243 0
v 9.02171326 18.8593292 0
v 5.14117432 11.4751396 0
v 5.14279938 21.2551003 0
v 7.3846817 34.7991257 0
v 12.4173584 39.4816055 0
v 10.0995331 53.2856369 0
v 1.63530731 61.5773277 0
v -4.90158081 51.3693771 0
v -3.31240082 39.3071861 0
v 2.46661377 33.754158 0
v 0.592018127 21.4515991 0
v -2.08561707 7.05894852 0
v -6.25039673 9.31959152 0
v -10.9483795 20.3435974 0
v -19.8076591 24.8676796 0
v -31.6384621 26.7581177 0
v -28.473423 16.8087425 0
v -17.3503113 6.15227127 0
v -5.63090515 4.02928162 0
v -5.07554626 -7.16444778 0
v -9.18419647 -9.96445084 0
v -17.4240685 -1.74235916 0
v -32.7806778 -0.953144073 0
v -20.3184891 -15.0247765 0
v -6.00826263 -13.5030708 0
v -5.89234161 -28.7817268 0
v -3.95349121 -47.8014107 0
vt 0.801212728 0.113530338 0.5
vt 0.814006329 0.0372159779 0.5
vt 0.789550424 0.0681968629 0.5
vt 0.801949918 0.22016269 0.5
vt 0.785132885 0.228184909 0.5
vt 0.810827732 0.273458481 0.5
vt 0.825356185 0.301569104 0.5
vt 0.807446122 0.340846539 0.5
vt 0.825362563 0.3400729 0.5
vt 0.810827732 0.273458481 0.5
vt 0.782946467 0.272254705 0.5
vt 0.796904266 0.284182549 0.5
vt 0.807446122 0.340846539 0.5
vt 0.825356185 0.301569104 0.5
vt 0.796904266 0.284182549 0.5
vt 0.834188938 0.393395841 0.5
vt 0.825362563 0.3400729 0.5
vt 0.814826429 0.38928178 0.5
vt 0.825356185 0.301569104 0.5
vt 0.810827732 0.273458481 0.5
vt 0.796904266 0.284182549 0.5
vt 0.857683599 0.286662102 0.5
vt 0.810827732 0.273458481 0.5
vt 0.825356185 0.301569104 0.5
vt 0.857683599 0.286662102 0.5
vt 0.825356185 0.301569104 0.5
vt 0.840633869 0.330640733 0.5
vt 0.868097663 0.362882853 0.5
vt 0.899376631 0.312915444 0.5
vt 0.840633869 0.330640733 0.5
vt 0.857683599 0.286662102 0.5
vt 0.840633869 0.330640733 0.5
vt 0.899376631 0.312915444 0.5
vt 0.89837122 0.351645172 0.5
vt 0.899376631 0.312915444 0.5
vt 0.868097663 0.362882853 0.5
vt 0.825362563 0.3400729 0.5
vt 0.807446122 0.340846539 0.5
vt 0.814826429 0.38928178 0.5
vt 0.834188938 0.393395841 0.5
vt 0.814826429 0.38928178 0.5
vt 0.854002595 0.411830813 0.5
vt 0.814826429 0.38928178 0.5
vt 0.792074442 0.411144108 0.5
vt 0.854002595 0.411830813 0.5
vt 0.844877303 0.466177374 0.5
vt 0.785817742 0.458633035 0.5
vt 0.811553597 0.498821825 0.5
vt 0.809061587 0.212659925 0.5
vt 0.822469115 0.2449058 0.5
vt 0.871865809 0.205866963 0.5
vt 0.821434736 0.137784094 0.5
vt 0.809061587 0.212659925 0.5
vt 0.871865809 0.205866963 0.5
vt 0.871865809 0.205866963 0.5
vt 0.822469115 0.2449058 0.5
vt 0.86221534 0.263721347 0.5
vt 0.866406202 0.126976222 0.5
vt 0.821434736 0.137784094 0.5
vt 0.871865809 0.205866963 0.5
vt 0.871865809 0.205866963 0.5
vt 0.86221534 0.263721347 0.5
vt 0.890285254 0.242224336 0.5
vt 0.890285254 0.242224336 0.5
vt 0.86221534 0.263721347 0.5
vt 0.904786587 0.275235713 0.5
vt 0.871865809 0.205866963 0.5
vt 0.90645349 0.148078829 0.5
vt 0.866406202 0.126976222 0.5
vt 0.903485835 0.190365523 0.5
vt 0.90645349 0.148078829 0.5
vt 0.871865809 0.205866963 0.5
vt 0.934173107 0.161266506 0.5
vt 0.90645349 0.148078829 0.5
vt 0.903485835 0.190365523 0.5
vt 0.814006329 0.0372159779 0.5
vt 0.801946521 0.0127828121 0.5
vt 0.789550424 0.0681968629 0.5
vt 0.809061587 0.212659925 0.5
vt 0.781460762 0.203229696 0.5
vt 0.801949918 0.22016269 0.5
vt 0.782946467 0.272254705 0.5
vt 0.810827732 0.273458481 0.5
vt 0.785132885 0.228184909 0.5
vt 0.792074442 0.411144108 0.5
vt 0.844877303 0.466177374 0.5
vt 0.854002595 0.411830813 0.5
vt 0.796904266 0.284182549 0.5
vt 0.782946467 0.272254705 0.5
vt 0.780507445 0.293082714 0.5
vt 0.789550424 0.0681968629 0.5
vt 0.781917155 0.143077523 0.5
vt 0.801212728 0.113530338 0.5
vt 0.801949918 0.22016269 0.5
vt 0.781460762 0.203229696 0.5
vt 0.785132885 0.228184909 0.5
vt 0.844877303 0.466177374 0.5
vt 0.792074442 0.411144108 0.5
vt 0.785817742 0.458633035 0.5
vt 0.781917155 0.143077523 0.5
vt 0.821434736 0.137784094 0.5
vt 0.801212728 0.113530338 0.5
vt 0.809061587 0.212659925 0.5
vt 0.781917155 0.143077523 0.5
vt 0.781460762 0.203229696 0.5
vt 0.821434736 0.137784094 0.5
vt 0.781917155 0.143077523 0.5
vt 0.809061587 0.212659925 0.5
vt 0.785132885 0.228184909 0.5
vt 0.781460762 0.203229696 0.5
vt 0.768957078 0.217161298 0.5
vt 0.780507445 0.293082714 0.5
vt 0.736807048 0.280612946 0.5
vt 0.762011528 0.336484313 0.5
vt 0.736807048 0.280612946 0.5
vt 0.780507445 0.293082714 0.5
vt 0.782946467 0.272254705 0.5
vt 0.736516654 0.249531716 0.5
vt 0.768957078 0.217161298 0.5
vt 0.72512126 0.197238743 0.5
vt 0.781460762 0.203229696 0.5
vt 0.72512126 0.197238743 0.5
vt 0.768957078 0.217161298 0.5
vt 0.736807048 0.280612946 0.5
vt 0.693015277 0.322567552 0.5
vt 0.762011528 0.336484313 0.5
vt 0.762011528 0.336484313 0.5
vt 0.693015277 0.322567552 0.5
vt 0.72713244 0.354295671 0.5
vt 0.72713244 0.354295671 0.5
vt 0.693015277 0.322567552 0.5
vt 0.680554509 0.361738324 0.5
vt 0.736516654 0.249531716 0.5
vt 0.72512126 0.197238743 0.5
vt 0.676057577 0.252638876 0.5
vn 0 0 -1
vn 0 0 -1
vn 0 0 -1
vn 0 0 -1
vn 0 0 -0.99999994
vn 0 0 -1
vn 0 0 -0.99999994
vn 0 0 -1
vn 0 0 -1
vn 0 0 -1
vn 0 0 -1
vn 0 0 -1
vn 0 0 -1
vn 0 0 -0.99999994
vn 0 0 -1
vn 0 0 -1
vn 0 0 -1
vn 0 0 -0.99999994
vn 0 0 -0.99999994
vn 0 0 -1
vn 0 0 -1
vn 0 0 -1
vn 0 0 -1
vn 0 0 -0.99999994
vn 0 0 -1
vn 0 0 -0.99999994
vn 0 0 -1
vn 0 -0 -1
vn 0 0 -1
vn 0 0 -1
vn 0 0 -1
vn 0 0 -1
vn 0 0 -1
vn -0 0 -1
vn 0 0 -1
vn 0 -0 -1
vn 0 0 -1
vn 0 0 -1
vn 0 0 -0.99999994
vn 0 0 -1
vn 0 0 -0.99999994
vn 0 0 -1
vn 0 0 -0.99999994
vn 0 0 -1
vn 0 0 -1
vn 0 0 -1
vn 0 0 -1
vn 0 0 -1
vn 0 0 -1
vn 0 0 -1
vn 0 0 -1
vn 0 0 -1
vn 0 0 -1
vn 0 0 -1
vn 0 0 -1
vn 0 0 -1
vn 0 0 -1
vn 0 0 -1
vn 0 0 -1
vn 0 0 -1
vn 0 0 -1
vn 0 0 -1
vn 0 0 -1
vn 0 0 -1
vn 0 0 -1
vn 0 0 -1
vn 0 0 -1
vn 0 0 -1
vn 0 0 -1
vn 0 0 -1
vn 0 0 -1
vn 0 0 -1
vn 0 0 -1
vn 0 0 -1
vn 0 0 -1
vn 0 0 -1
vn 0 0 -1
vn 0 0 -1
vn 0 0 -1
vn 0 0 -1
vn 0 0 -1
vn 0 0 -1
vn 0 0 -1
vn 0 0 -0.99999994
vn 0 0 -1
vn 0 0 -1
vn 0 0 -1
vn 0 0 -1
vn 0 0 -1
vn 0 0 -1
vn 0 0 -1
vn 0 0 -0.99999994
vn 0 0 -1
vn 0 0 -1
vn 0 0 -1
vn 0 0 -0.99999994
vn 0 0 -1
vn 0 0 -1
vn 0 0 -1
vn 0 0 -0.99999994
vn 0 0 -1
vn 0 0 -1
vn 0 0 -1
vn 0 0 -0.99999994
vn 0 0 -1
vn 0 0 -1
vn 0 0 -0.99999994
vn 0 0 -1
vn 0 0 -0.99999994
vn 0 0 -1
vn 0 0 -1
vn 0 0 -1
vn 0 0 -1
vn 0 0 -0.99999994
vn 0 0 -1
vn 0 0 -1
vn 0 0 -1
vn 0 0 -0.99999994
vn 0 0 -1
vn 0 0 -1
vn 0 0 -1
vn 0 0 -1
vn 0 0 -1
vn 0 0 -1
vn 0 0 -1
vn 0 0 -0.99999994
vn 0 0 -0.99999994
vn 0 0 -1
vn 0 0 -0.99999994
vn 0 0 -0.99999994
vn 0 0 -1
vn 0 0 -1
vn 0 0 -0.99999994
vn 0 0 -1
vn 0 0 -1
g MI_Foliage
f 3/1/1 2/2/2 47/3/3
f 15/4/4 40/5/5 16/6/6
f 22/7/7 31/8/8 23/9/9
f 16/10/10 39/11/11 32/12/12
f 31/13/13 22/14/14 32/15/15
f 24/16/16 23/17/17 30/18/18
f 22/19/19 16/20/20 32/21/21
f 17/22/22 16/23/23 22/24/24
f 17/25/25 22/26/26 21/27/27
f 20/28/28 18/29/29 21/30/30
f 17/31/31 21/32/32 18/33/33
f 19/34/34 18/35/35 20/36/36
f 23/37/37 31/38/38 30/39/39
f 24/40/40 30/41/41 25/42/42
f 30/43/43 29/44/44 25/45/45
f 26/46/46 28/47/47 27/48/48
f 14/49/49 13/50/50 9/51/51
f 4/52/52 14/53/53 9/54/54
f 9/55/55 13/56/56 12/57/57
f 5/58/58 4/59/59 9/60/60
f 9/61/61 12/62/62 10/63/63
f 10/64/64 12/65/65 11/66/66
f 9/67/67 6/68/68 5/69/69
f 8/70/70 6/71/71 9/72/72
f 7/73/73 6/74/74 8/75/75
f 2/76/76 1/77/77 47/78/78
f 14/79/79 45/80/80 15/81/81
f 39/82/82 16/83/83 40/84/84
f 29/85/85 26/86/86 25/87/87
f 32/88/88 39/89/89 33/90/90
f 47/91/91 46/92/92 3/93/93
f 15/94/94 45/95/95 40/96/96
f 26/97/97 29/98/98 28/99/99
f 46/100/100 4/101/101 3/102/102
f 14/103/103 46/104/104 45/105/105
f 4/106/106 46/107/107 14/108/108
f 40/109/109 45/110/110 41/111/111
f 33/112/112 38/113/113 34/114/114
f 38/115/115 33/116/116 39/117/117
f 42/118/118 41/119/119 44/120/120
f 45/121/121 44/122/122 41/123/123
f 38/124/124 37/125/125 34/126/126
f 34/127/127 37/128/128 35/129/129
f 35/130/130 37/131/131 36/132/132
f 42/133/133 44/134/134 43/135/135
